<?xml version="1.0" encoding="UTF-8" standalone="no"?>
<svg
   xmlns:dc="http://purl.org/dc/elements/1.1/"
   xmlns:cc="http://creativecommons.org/ns#"
   xmlns:rdf="http://www.w3.org/1999/02/22-rdf-syntax-ns#"
   xmlns:svg="http://www.w3.org/2000/svg"
   xmlns="http://www.w3.org/2000/svg"
   xmlns:sodipodi="http://sodipodi.sourceforge.net/DTD/sodipodi-0.dtd"
   xmlns:inkscape="http://www.inkscape.org/namespaces/inkscape"
   version="1.1"
   height="80"
   width="80"
   id="svg2"
   inkscape:version="0.48.2 r9819"
   sodipodi:docname="4e46878cac66a_icon.svg">
  <metadata
     id="metadata166">
    <rdf:RDF>
      <cc:Work
         rdf:about="">
        <dc:title></dc:title>
      </cc:Work>
    </rdf:RDF>
  </metadata>
  <sodipodi:namedview
     pagecolor="#ffffff"
     bordercolor="#666666"
     borderopacity="1"
     objecttolerance="10"
     gridtolerance="10"
     guidetolerance="10"
     inkscape:pageopacity="0"
     inkscape:pageshadow="2"
     inkscape:window-width="1024"
     inkscape:window-height="575"
     id="namedview164"
     showgrid="false"
     inkscape:zoom="1.475"
     inkscape:cx="17.063123"
     inkscape:cy="92.349353"
     inkscape:window-x="0"
     inkscape:window-y="25"
     inkscape:window-maximized="1"
     inkscape:current-layer="g12" />
  <defs
     id="defs4">
    <linearGradient
       id="hicg_overlay_grad"
       gradientUnits="userSpaceOnUse"
       x1="39.9995"
       y1="5.1816"
       x2="39.9995"
       y2="58.8019">
      <stop
         offset="0"
         style="stop-color:#FFFFFF"
         id="stop7" />
      <stop
         offset="1"
         style="stop-color:#000000"
         id="stop9" />
    </linearGradient>
    <filter
       id="hicg_drop_shadow">
      <feOffset
         in="SourceAlpha"
         dx="0"
         dy="4"
         id="feOffset12" />
      <feGaussianBlur
         stdDeviation="4"
         id="feGaussianBlur14" />
      <feColorMatrix
         type="matrix"
         values="1 0 0 0 0  0 1 0 0 0  0 0 1 0 0  0 0 0 0.5 0"
         result="shadow"
         id="feColorMatrix16" />
      <feBlend
         in="SourceGraphic"
         in2="shadow"
         mode="normal"
         id="feBlend18" />
    </filter>
    <defs
       id="defs6">
      <inkscape:perspective
         id="perspective10"
         inkscape:persp3d-origin="0.5 : 0.33333333 : 1"
         inkscape:vp_z="1 : 0.5 : 1"
         inkscape:vp_y="0 : 1000 : 0"
         inkscape:vp_x="0 : 0.5 : 1"
         sodipodi:type="inkscape:persp3d" />
      <clipPath
         id="clipPath18"
         clipPathUnits="userSpaceOnUse">
        <path
           inkscape:connector-curvature="0"
           id="path20"
           d="m 324.26,390.449 11.338,0 0,11.338 -11.338,0 0,-11.338 z" />
      </clipPath>
      <clipPath
         id="clipPath30"
         clipPathUnits="userSpaceOnUse">
        <path
           inkscape:connector-curvature="0"
           id="path32"
           d="m 369.33,390.449 11.339,0 0,11.338 -11.339,0 0,-11.338 z" />
      </clipPath>
      <clipPath
         id="clipPath62"
         clipPathUnits="userSpaceOnUse">
        <path
           inkscape:connector-curvature="0"
           id="path64"
           d="m 386.339,1364.291 11.338,0 0,11.339 -11.338,0 0,-11.339 z" />
      </clipPath>
      <clipPath
         id="clipPath112"
         clipPathUnits="userSpaceOnUse">
        <path
           inkscape:connector-curvature="0"
           id="path114"
           d="m 502.559,25.984 238.11,0 0,371.694 -238.11,0 0,-371.694 z" />
      </clipPath>
      <clipPath
         id="clipPath1086"
         clipPathUnits="userSpaceOnUse">
        <path
           inkscape:connector-curvature="0"
           id="path1088"
           d="m 511.063,38.902 221.24,0 0,358.776 -221.24,0 0,-358.776 z" />
      </clipPath>
      <clipPath
         id="clipPath1102"
         clipPathUnits="userSpaceOnUse">
        <path
           inkscape:connector-curvature="0"
           id="path1104"
           d="m 502.559,25.984 238.11,0 0,371.694 -238.11,0 0,-371.694 z" />
      </clipPath>
      <clipPath
         id="clipPath1114"
         clipPathUnits="userSpaceOnUse">
        <path
           inkscape:connector-curvature="0"
           id="path1116"
           d="m 511.063,38.902 221.24,0 0,358.776 -221.24,0 0,-358.776 z" />
      </clipPath>
      <clipPath
         id="clipPath1126"
         clipPathUnits="userSpaceOnUse">
        <path
           inkscape:connector-curvature="0"
           id="path1128"
           d="m 502.559,25.984 238.11,0 0,371.694 -238.11,0 0,-371.694 z" />
      </clipPath>
      <clipPath
         id="clipPath1138"
         clipPathUnits="userSpaceOnUse">
        <path
           inkscape:connector-curvature="0"
           id="path1140"
           d="m 511.063,38.902 221.24,0 0,358.776 -221.24,0 0,-358.776 z" />
      </clipPath>
      <clipPath
         id="clipPath1150"
         clipPathUnits="userSpaceOnUse">
        <path
           inkscape:connector-curvature="0"
           id="path1152"
           d="m 502.559,25.984 238.11,0 0,371.694 -238.11,0 0,-371.694 z" />
      </clipPath>
      <clipPath
         id="clipPath1162"
         clipPathUnits="userSpaceOnUse">
        <path
           inkscape:connector-curvature="0"
           id="path1164"
           d="m 511.063,38.902 221.24,0 0,358.776 -221.24,0 0,-358.776 z" />
      </clipPath>
      <clipPath
         id="clipPath1174"
         clipPathUnits="userSpaceOnUse">
        <path
           inkscape:connector-curvature="0"
           id="path1176"
           d="m 502.559,25.984 238.11,0 0,371.694 -238.11,0 0,-371.694 z" />
      </clipPath>
      <clipPath
         id="clipPath1250"
         clipPathUnits="userSpaceOnUse">
        <path
           inkscape:connector-curvature="0"
           id="path1252"
           d="m 511.063,38.902 221.24,0 0,358.776 -221.24,0 0,-358.776 z" />
      </clipPath>
      <clipPath
         id="clipPath1262"
         clipPathUnits="userSpaceOnUse">
        <path
           inkscape:connector-curvature="0"
           id="path1264"
           d="m 502.559,25.984 238.11,0 0,371.694 -238.11,0 0,-371.694 z" />
      </clipPath>
      <clipPath
         id="clipPath1274"
         clipPathUnits="userSpaceOnUse">
        <path
           inkscape:connector-curvature="0"
           id="path1276"
           d="m 511.063,38.902 221.24,0 0,358.776 -221.24,0 0,-358.776 z" />
      </clipPath>
      <clipPath
         id="clipPath1286"
         clipPathUnits="userSpaceOnUse">
        <path
           inkscape:connector-curvature="0"
           id="path1288"
           d="m 502.559,25.984 238.11,0 0,371.694 -238.11,0 0,-371.694 z" />
      </clipPath>
      <clipPath
         id="clipPath1452"
         clipPathUnits="userSpaceOnUse">
        <path
           inkscape:connector-curvature="0"
           id="path1454"
           d="m 565.125,267.335 105.679,0 0,73.261 -105.679,0 0,-73.261 z" />
      </clipPath>
      <clipPath
         id="clipPath1464"
         clipPathUnits="userSpaceOnUse">
        <path
           inkscape:connector-curvature="0"
           id="path1466"
           d="m 502.559,25.984 238.11,0 0,371.694 -238.11,0 0,-371.694 z" />
      </clipPath>
      <clipPath
         id="clipPath1550"
         clipPathUnits="userSpaceOnUse">
        <path
           inkscape:connector-curvature="0"
           id="path1552"
           d="m 502.559,25.984 238.11,0 0,371.694 -238.11,0 0,-371.694 z" />
      </clipPath>
      <clipPath
         id="clipPath1606"
         clipPathUnits="userSpaceOnUse">
        <path
           inkscape:connector-curvature="0"
           id="path1608"
           d="m 664.105,244.094 48.152,0 0,16.102 -48.152,0 0,-16.102 z" />
      </clipPath>
      <clipPath
         id="clipPath1622"
         clipPathUnits="userSpaceOnUse">
        <path
           inkscape:connector-curvature="0"
           id="path1624"
           d="m 502.559,25.984 238.11,0 0,371.694 -238.11,0 0,-371.694 z" />
      </clipPath>
      <clipPath
         id="clipPath1788"
         clipPathUnits="userSpaceOnUse">
        <path
           inkscape:connector-curvature="0"
           id="path1790"
           d="m 611.395,248.235 49.382,0 0,11.056 -49.382,0 0,-11.056 z" />
      </clipPath>
      <clipPath
         id="clipPath1804"
         clipPathUnits="userSpaceOnUse">
        <path
           inkscape:connector-curvature="0"
           id="path1806"
           d="m 502.559,25.984 238.11,0 0,371.694 -238.11,0 0,-371.694 z" />
      </clipPath>
      <clipPath
         id="clipPath2738"
         clipPathUnits="userSpaceOnUse">
        <path
           inkscape:connector-curvature="0"
           id="path2740"
           d="m 17.835,17.835 969.449,0 0,1405.984 -969.449,0 0,-1405.984 z" />
      </clipPath>
      <clipPath
         id="clipPath2762"
         clipPathUnits="userSpaceOnUse">
        <path
           inkscape:connector-curvature="0"
           id="path2764"
           d="m 17.835,17.835 969.449,0 0,1405.984 -969.449,0 0,-1405.984 z" />
      </clipPath>
      <clipPath
         id="clipPath2778"
         clipPathUnits="userSpaceOnUse">
        <path
           inkscape:connector-curvature="0"
           id="path2780"
           d="m 17.835,17.835 969.449,0 0,1405.984 -969.449,0 0,-1405.984 z" />
      </clipPath>
      <clipPath
         id="clipPath2790"
         clipPathUnits="userSpaceOnUse">
        <path
           inkscape:connector-curvature="0"
           id="path2792"
           d="m 84.732,1364.291 11.338,0 0,11.339 -11.338,0 0,-11.339 z" />
      </clipPath>
      <clipPath
         id="clipPath2802"
         clipPathUnits="userSpaceOnUse">
        <path
           inkscape:connector-curvature="0"
           id="path2804"
           d="m 127.819,1364.291 11.338,0 0,11.339 -11.338,0 0,-11.339 z" />
      </clipPath>
      <clipPath
         id="clipPath2814"
         clipPathUnits="userSpaceOnUse">
        <path
           inkscape:connector-curvature="0"
           id="path2816"
           d="m 170.906,1364.291 11.338,0 0,11.339 -11.338,0 0,-11.339 z" />
      </clipPath>
      <clipPath
         id="clipPath2826"
         clipPathUnits="userSpaceOnUse">
        <path
           inkscape:connector-curvature="0"
           id="path2828"
           d="m 213.992,1364.291 11.338,0 0,11.339 -11.338,0 0,-11.339 z" />
      </clipPath>
      <clipPath
         id="clipPath2838"
         clipPathUnits="userSpaceOnUse">
        <path
           inkscape:connector-curvature="0"
           id="path2840"
           d="m 257.079,1364.291 11.338,0 0,11.339 -11.338,0 0,-11.339 z" />
      </clipPath>
      <clipPath
         id="clipPath2850"
         clipPathUnits="userSpaceOnUse">
        <path
           inkscape:connector-curvature="0"
           id="path2852"
           d="m 300.165,1364.291 11.338,0 0,11.339 -11.338,0 0,-11.339 z" />
      </clipPath>
      <clipPath
         id="clipPath2862"
         clipPathUnits="userSpaceOnUse">
        <path
           inkscape:connector-curvature="0"
           id="path2864"
           d="m 343.252,1364.291 11.338,0 0,11.339 -11.338,0 0,-11.339 z" />
      </clipPath>
      <clipPath
         id="clipPath2874"
         clipPathUnits="userSpaceOnUse">
        <path
           inkscape:connector-curvature="0"
           id="path2876"
           d="m 429.425,1364.291 11.339,0 0,11.339 -11.339,0 0,-11.339 z" />
      </clipPath>
      <clipPath
         id="clipPath2886"
         clipPathUnits="userSpaceOnUse">
        <path
           inkscape:connector-curvature="0"
           id="path2888"
           d="m 472.512,1364.291 11.339,0 0,11.339 -11.339,0 0,-11.339 z" />
      </clipPath>
      <clipPath
         id="clipPath2912"
         clipPathUnits="userSpaceOnUse">
        <path
           inkscape:connector-curvature="0"
           id="path2914"
           d="m 573.425,1364.291 11.339,0 0,11.339 -11.339,0 0,-11.339 z" />
      </clipPath>
      <clipPath
         id="clipPath2924"
         clipPathUnits="userSpaceOnUse">
        <path
           inkscape:connector-curvature="0"
           id="path2926"
           d="m 618.78,1364.291 11.338,0 0,11.339 -11.338,0 0,-11.339 z" />
      </clipPath>
      <clipPath
         id="clipPath2936"
         clipPathUnits="userSpaceOnUse">
        <path
           inkscape:connector-curvature="0"
           id="path2938"
           d="m 664.133,1364.291 11.339,0 0,11.339 -11.339,0 0,-11.339 z" />
      </clipPath>
      <clipPath
         id="clipPath2948"
         clipPathUnits="userSpaceOnUse">
        <path
           inkscape:connector-curvature="0"
           id="path2950"
           d="m 709.488,1364.291 11.339,0 0,11.339 -11.339,0 0,-11.339 z" />
      </clipPath>
      <clipPath
         id="clipPath2960"
         clipPathUnits="userSpaceOnUse">
        <path
           inkscape:connector-curvature="0"
           id="path2962"
           d="m 754.843,1364.291 11.338,0 0,11.339 -11.338,0 0,-11.339 z" />
      </clipPath>
      <clipPath
         id="clipPath2972"
         clipPathUnits="userSpaceOnUse">
        <path
           inkscape:connector-curvature="0"
           id="path2974"
           d="m 800.197,1364.291 11.338,0 0,11.339 -11.338,0 0,-11.339 z" />
      </clipPath>
      <clipPath
         id="clipPath2984"
         clipPathUnits="userSpaceOnUse">
        <path
           inkscape:connector-curvature="0"
           id="path2986"
           d="m 890.906,1364.291 11.338,0 0,11.339 -11.338,0 0,-11.339 z" />
      </clipPath>
      <clipPath
         id="clipPath2996"
         clipPathUnits="userSpaceOnUse">
        <path
           inkscape:connector-curvature="0"
           id="path2998"
           d="m 936.26,1364.291 11.338,0 0,11.339 -11.338,0 0,-11.339 z" />
      </clipPath>
      <clipPath
         id="clipPath3022"
         clipPathUnits="userSpaceOnUse">
        <path
           inkscape:connector-curvature="0"
           id="path3024"
           d="m 97.204,390.449 11.339,0 0,11.338 -11.339,0 0,-11.338 z" />
      </clipPath>
      <clipPath
         id="clipPath3034"
         clipPathUnits="userSpaceOnUse">
        <path
           inkscape:connector-curvature="0"
           id="path3036"
           d="m 142.559,390.449 11.338,0 0,11.338 -11.338,0 0,-11.338 z" />
      </clipPath>
      <clipPath
         id="clipPath3046"
         clipPathUnits="userSpaceOnUse">
        <path
           inkscape:connector-curvature="0"
           id="path3048"
           d="m 187.914,390.449 11.338,0 0,11.338 -11.338,0 0,-11.338 z" />
      </clipPath>
      <clipPath
         id="clipPath3058"
         clipPathUnits="userSpaceOnUse">
        <path
           inkscape:connector-curvature="0"
           id="path3060"
           d="m 233.267,390.449 11.339,0 0,11.338 -11.339,0 0,-11.338 z" />
      </clipPath>
      <clipPath
         id="clipPath3070"
         clipPathUnits="userSpaceOnUse">
        <path
           inkscape:connector-curvature="0"
           id="path3072"
           d="m 278.622,390.449 11.339,0 0,11.338 -11.339,0 0,-11.338 z" />
      </clipPath>
      <clipPath
         id="clipPath3082"
         clipPathUnits="userSpaceOnUse">
        <path
           inkscape:connector-curvature="0"
           id="path3084"
           d="m 414.685,390.449 11.339,0 0,11.338 -11.339,0 0,-11.338 z" />
      </clipPath>
      <clipPath
         id="clipPath3094"
         clipPathUnits="userSpaceOnUse">
        <path
           inkscape:connector-curvature="0"
           id="path3096"
           d="m 460.039,390.449 11.338,0 0,11.338 -11.338,0 0,-11.338 z" />
      </clipPath>
      <clipPath
         id="clipPath3266"
         clipPathUnits="userSpaceOnUse">
        <path
           inkscape:connector-curvature="0"
           id="path3268"
           d="m 845.551,1364.291 11.339,0 0,11.339 -11.339,0 0,-11.339 z" />
      </clipPath>
      <clipPath
         id="clipPath3302"
         clipPathUnits="userSpaceOnUse">
        <path
           inkscape:connector-curvature="0"
           id="path3304"
           d="m 741.236,17.834 246.047,0 0,124.726 -246.047,0 0,-124.726 z" />
      </clipPath>
      <clipPath
         id="clipPath3432"
         clipPathUnits="userSpaceOnUse">
        <path
           inkscape:connector-curvature="0"
           id="path3434"
           d="m 740.659,505.02 12.757,0 0,12.755 -12.757,0 0,-12.755 z" />
      </clipPath>
      <clipPath
         id="clipPath3458"
         clipPathUnits="userSpaceOnUse">
        <path
           inkscape:connector-curvature="0"
           id="path3460"
           d="m 740.659,476.02 12.757,0 0,12.755 -12.757,0 0,-12.755 z" />
      </clipPath>
      <clipPath
         id="clipPath3484"
         clipPathUnits="userSpaceOnUse">
        <path
           inkscape:connector-curvature="0"
           id="path3486"
           d="m 740.659,447.02 12.757,0 0,12.755 -12.757,0 0,-12.755 z" />
      </clipPath>
      <clipPath
         id="clipPath3510"
         clipPathUnits="userSpaceOnUse">
        <path
           inkscape:connector-curvature="0"
           id="path3512"
           d="m 740.659,418.019 12.757,0 0,12.755 -12.757,0 0,-12.755 z" />
      </clipPath>
      <clipPath
         id="clipPath3530"
         clipPathUnits="userSpaceOnUse">
        <path
           inkscape:connector-curvature="0"
           id="path3532"
           d="m 741.236,564.458 69.204,0 0,133.691 -69.204,0 0,-133.691 z" />
      </clipPath>
      <clipPath
         id="clipPath3572"
         clipPathUnits="userSpaceOnUse">
        <path
           inkscape:connector-curvature="0"
           id="path3574"
           d="m 763.914,156.733 12.756,0 0,12.755 -12.756,0 0,-12.755 z" />
      </clipPath>
      <clipPath
         id="clipPath3608"
         clipPathUnits="userSpaceOnUse">
        <path
           inkscape:connector-curvature="0"
           id="path3610"
           d="m 0,0 1005.118,0 0,1441.654 L 0,1441.654 0,0 z" />
      </clipPath>
      <clipPath
         id="clipPath3628"
         clipPathUnits="userSpaceOnUse">
        <path
           inkscape:connector-curvature="0"
           id="path3630"
           d="m 0,0 1005.118,0 0,1441.654 L 0,1441.654 0,0 z" />
      </clipPath>
      <clipPath
         id="clipPath3692"
         clipPathUnits="userSpaceOnUse">
        <path
           inkscape:connector-curvature="0"
           id="path3694"
           d="m 0,0 1005.118,0 0,1441.654 L 0,1441.654 0,0 z" />
      </clipPath>
    </defs>
    <sodipodi:namedview
       fit-margin-bottom="0"
       fit-margin-right="0"
       fit-margin-left="0"
       fit-margin-top="0"
       inkscape:current-layer="g12"
       inkscape:window-maximized="1"
       inkscape:window-y="25"
       inkscape:window-x="0"
       inkscape:cy="64.79655"
       inkscape:cx="15.560672"
       inkscape:zoom="2.8284271"
       showgrid="false"
       id="namedview4"
       inkscape:window-height="575"
       inkscape:window-width="1024"
       inkscape:pageshadow="2"
       inkscape:pageopacity="0"
       guidetolerance="10"
       gridtolerance="10"
       objecttolerance="10"
       borderopacity="1"
       bordercolor="#666666"
       pagecolor="#ffffff" />
  </defs>
  <g
     id="g20">
    <path
       id="hicg_background"
       fill="#0fab4b"
       d="M79,40c0,28.893-10.105,39-39,39S1,68.893,1,40C1,11.106,11.105,1,40,1S79,11.106,79,40z" />
    <path
       id="hicg_highlight"
       fill="#fff"
       opacity="0.25"
       d="M39.999,1C11.105,1,1,11.106,1,40c0,28.893,10.105,39,38.999,39   C68.896,79,79,68.893,79,40C79,11.106,68.896,1,39.999,1z M39.999,78.025C11.57,78.025,1.976,68.43,1.976,40   c0-28.429,9.595-38.024,38.023-38.024c28.43,0,38.024,9.596,38.024,38.024C78.023,68.43,68.429,78.025,39.999,78.025z" />
    <path
       id="hicg_overlay"
       opacity="0.4"
       fill="url(#hicg_overlay_grad)"
       d="M78.977,40c0,28.893-10.1,39-38.977,39S1.023,68.893,1.023,40c0-28.894,10.1-39,38.977-39S78.977,11.106,78.977,40z" />
  </g>
  <g
     style="filter:url(#hicg_drop_shadow)"
     transform="matrix(0.35,0,0,-0.35,-229.19508,91.25708)"
     inkscape:label="Western 43 20110814"
     inkscape:groupmode="layer"
     id="g12">
    <g
       style="fill:#ffffff;fill-opacity:1"
       transform="matrix(11.5201,0,0,11.5201,-7556.86,-694.746)"
       id="g3184">
      <g
         style="fill:#ffffff;fill-opacity:1"
         id="g1412"
         transform="translate(721.698,79.4643)">
        <path
           inkscape:connector-curvature="0"
           d="M 0,0 C 0,0.252 0.19,0.455 0.427,0.455 0.664,0.455 0.855,0.252 0.855,0 0.855,-0.25 0.664,-0.454 0.427,-0.454 0.19,-0.454 0,-0.25 0,0"
           style="fill:#ffffff;fill-opacity:1;fill-rule:nonzero;stroke:none"
           id="path1414" />
      </g>
      <g
         style="fill:#ffffff;fill-opacity:1"
         id="g3148">
        <g
           style="fill:#ffffff;fill-opacity:1"
           transform="translate(722.886,79.4643)"
           id="g1404">
          <path
             inkscape:connector-curvature="0"
             id="path1406"
             style="fill:#ffffff;fill-opacity:1;fill-rule:nonzero;stroke:none"
             d="M 0,0 C 0,0.252 0.193,0.455 0.43,0.455 0.665,0.455 0.857,0.252 0.857,0 0.857,-0.25 0.665,-0.454 0.43,-0.454 0.193,-0.454 0,-0.25 0,0" />
        </g>
        <path
           inkscape:connector-curvature="0"
           id="path1410"
           transform="matrix(0.8,0,0,-0.8,714.153,81.565)"
           d="M 7.75,3.375 C 7.10625,3.375 6,4.015 6,5.09375 l 0,8.9375 c 0,1.33125 1.46875,1.78125 1.46875,1.78125 l -2.25,3.59375 1.46875,0 1.6875,-2.71875 4.71875,0 1.6875,2.71875 1.46875,0 L 14,15.8125 c 0,0 1.46875,-0.45 1.46875,-1.78125 l 0,-8.9375 c 0,-1.07875 -1.10625,-1.71875 -1.75,-1.71875 l -5.96875,0 z m 1.96875,0.34375 2,0 c 0.0875,0 0.1275,0.03125 0.125,0.15625 l 0,1.3125 c 0.0025,0.10125 -0.0375,0.09375 -0.125,0.09375 l -2,0 c -0.08625,0 -0.125,0.01625 -0.125,-0.15625 l 0,-1.28125 c 0,-0.12375 0.03875,-0.125 0.125,-0.125 z M 8.3125,5.625 l 4.90625,0 c 0.72375,0 0.9375,0.2325 0.9375,1 l 0,1.75 c 0,0.765 -0.21375,1 -0.9375,1 l -4.90625,0 c -0.72375,0 -0.9375,-0.235 -0.9375,-1 l 0,-1.75 c 0,-0.7675 0.215,-1 0.9375,-1 z m 5.125,6.65625 c 0.5925,0 1.0625,0.5 1.0625,1.125 0,0.62875 -0.47,1.15625 -1.0625,1.15625 -0.5925,0 -1.09375,-0.5275 -1.09375,-1.15625 0,-0.625 0.50125,-1.125 1.09375,-1.125 z M 8.03125,12.3125 c 0.59,0 1.09375,0.49875 1.09375,1.125 0,0.625 -0.50375,1.15625 -1.09375,1.15625 -0.59125,0 -1.0625,-0.53125 -1.0625,-1.15625 0,-0.62625 0.47125,-1.125 1.0625,-1.125 z"
           style="fill:#ffffff;fill-opacity:1;fill-rule:nonzero;stroke:none" />
        <g
           style="fill:#ffffff;fill-opacity:1"
           transform="translate(721.698,79.4643)"
           id="g1416">
          <path
             inkscape:connector-curvature="0"
             id="path1418"
             style="fill:#ffffff;stroke:#ffffff;stroke-width:0.01900000000000000;stroke-linecap:butt;stroke-linejoin:miter;stroke-miterlimit:3.86400007999999984;stroke-opacity:1;stroke-dasharray:none;fill-opacity:1"
             d="M 0,0 C 0,0.25 0.191,0.455 0.428,0.455 0.664,0.455 0.855,0.25 0.855,0 0.855,-0.25 0.664,-0.454 0.428,-0.454 0.191,-0.454 0,-0.25 0,0 z" />
        </g>
      </g>
      <g
         style="fill:#ffffff;fill-opacity:1"
         id="g1428"
         transform="translate(721.926,78.5873)" />
    </g>
  </g>
</svg>
