<?xml version="1.0" encoding="UTF-8" standalone="no"?>
<svg width="86px" height="86px" viewBox="0 0 86 86" version="1.1" xmlns="http://www.w3.org/2000/svg" xmlns:xlink="http://www.w3.org/1999/xlink" xmlns:sketch="http://www.bohemiancoding.com/sketch/ns">
    <title>Slice 1</title>
    <description>Created with Sketch (http://www.bohemiancoding.com/sketch)</description>
    <defs>
        <linearGradient x1="23.3148619%" y1="26.353561%" x2="83.0168968%" y2="84.9700218%" id="linearGradient-1">
            <stop stop-color="#4CB23A" offset="0%"></stop>
            <stop stop-color="#178D7C" offset="100%"></stop>
        </linearGradient>
    </defs>
    <g id="Page-1" stroke="none" stroke-width="1" fill="none" fill-rule="evenodd" sketch:type="MSPage">
        <path d="M0,43 L0,83.790278 C0,85.01865 0.98134982,86 2.2097222,86 L43,86 L83.790278,86 C85.01865,86 86,85.01865 86,83.790278 L86,43 C86,19.251756 66.748244,0 43,0 C19.251756,0 0,19.251756 0,43 Z" id="path3837-copy-3" fill="url(#linearGradient-1)" sketch:type="MSShapeGroup"></path>
        <path d="M23,73 L17,86 L26,86 L31,73 L23,73 Z" id="Path-3-copy-3" fill="#53F079" sketch:type="MSShapeGroup"></path>
        <path d="M61,73 L55,86 L64,86 L69,73 L61,73 Z" id="Path-3-copy-4" fill="#53F079" sketch:type="MSShapeGroup" transform="translate(62.000000, 79.500000) scale(-1, 1) translate(-62.000000, -79.500000) "></path>
        <path d="M12.0000003,63.9918123 C12.0000001,69.5191817 16.4583437,74.4107652 21.9577359,74.874319 C21.9577359,74.874319 32.4052581,75.9999983 43.202629,76 C54,76.0000018 64.0403266,74.8888769 64.0403266,74.8888769 C69.5409023,74.3979638 73.9999969,69.5214264 73.9999942,63.9918123 C73.9999942,63.9918123 73.9999824,53 74,40 C74.0000305,27 64,12.0000032 43,12 C22,11.9999968 11.9999994,27 12,40 C12.000001,53 12.0000003,63.9918123 12.0000003,63.9918123 Z M25,68 C27.7614239,68 30,65.7614239 30,63 C30,60.2385761 27.7614239,58 25,58 C22.2385761,58 20,60.2385761 20,63 C20,65.7614239 22.2385761,68 25,68 Z M61,68 C63.7614239,68 66,65.7614239 66,63 C66,60.2385761 63.7614239,58 61,58 C58.2385761,58 56,60.2385761 56,63 C56,65.7614239 58.2385761,68 61,68 Z M20,39.6428571 L19.9999998,46.0007667 C19.9999999,47.6571975 21.3295098,49.1935856 22.9633819,49.4168311 C22.9633819,49.4168311 32.9999999,51 42.9999999,51 C53.9999999,51 63.0435351,49.4413844 63.0435351,49.4413844 C64.6763456,49.1976145 65.9999999,47.6580327 65.9999998,46.0007667 C65.9999998,46.0007667 65.9999995,45.2857143 66,39.6428571 C65.9999999,34 58.9999999,28.9999986 42.9999999,29 C26.9999999,29.0000014 20,34 20,39.6428571 Z M34.9907951,19 C33.8913093,19 33,19.8938998 33,21.0048815 L33,21.9951185 C33,23.102384 33.8982124,24 34.9907951,24 L51.0092049,24 C52.1086907,24 53,23.1061002 53,21.9951185 L53,21.0048815 C53,19.897616 52.1017876,19 51.0092049,19 L34.9907951,19 Z" id="Path-2-copy-3" fill="#86FEBC" sketch:type="MSShapeGroup"></path>
    </g>
</svg>